<?xml version="1.0" encoding="UTF-8"?>
<svg xmlns="http://www.w3.org/2000/svg" viewBox="0 0 1016.49 984.67">
  <defs>
    <style>
      .cls-1 {
        fill: #9e7560;
      }

      .cls-1, .cls-2, .cls-3, .cls-4, .cls-5, .cls-6, .cls-7, .cls-8, .cls-9, .cls-10, .cls-11 {
        stroke-width: 0px;
      }

      .cls-2 {
        fill: #d2836a;
      }

      .cls-3 {
        fill: #b6916e;
      }

      .cls-4 {
        fill: #b06e59;
      }

      .cls-12 {
        isolation: isolate;
      }

      .cls-5 {
        fill: #765f58;
      }

      .cls-6 {
        fill: #b79372;
      }

      .cls-7 {
        fill: #c79378;
      }

      .cls-8 {
        fill: #d5a980;
      }

      .cls-13 {
        fill: none;
        stroke: #aa6955;
        stroke-miterlimit: 10;
        stroke-width: 3px;
      }

      .cls-9 {
        fill: #b36e59;
      }

      .cls-10 {
        fill: #aa6955;
      }

      .cls-11 {
        fill: #120000;
        mix-blend-mode: soft-light;
        opacity: .38;
      }
    </style>
  </defs>
  <g class="cls-12">
    <g id="cooking">
      <polygon class="cls-9" points="813.35 372.36 816.01 439.18 837.13 486.98 859.36 531.45 888.26 588.14 904.94 628.16 918.27 680.41 918.27 738.21 888.26 799.35 840.46 848.26 796 873.83 735.97 900.51 672.61 918.29 578.12 931.63 459.17 931.63 365.8 916.07 296.88 890.5 231.29 854.93 189.05 816.02 161.26 773.78 146.81 709.31 153.48 654.84 169.04 603.7 189.05 562.57 225.73 496.99 244.63 455.86 252.41 425.84 257.72 378.04 813.35 372.36"/>
      <path class="cls-10" d="M255.53,397.73l55.25,19.48,94.64,18.32h112.45s102.28-5.09,103.8-4.07,84.47-9.16,84.47-9.16l77.85-16.28,30.23-11.69-1.24-28.67-414.68,6.7-131.28-5.01-9.3,10.69-2.19,19.69Z"/>
      <path class="cls-2" d="M854.54,318.76l-2.96,27.42-31.87,25.94-48.91,17.04-66.7,13.34-101.53,8.15h-186.75l-78.55-8.89-69.66-17.04-34.83-20.01s-20.75-17.04-21.49-20.01-8.15-25.94-8.15-25.94l17.04-24.46,48.17-20.75,66.7-15.56,95.6-8.89h171.19l85.97,5.19,48.17,7.41,60.03,12.6,40.76,22.97,17.79,21.49Z"/>
      <polygon class="cls-5" points="807.11 334.69 816.01 324.13 787.1 313.57 748.2 299.12 706.51 294.12 660.93 288 605.91 284.11 524.76 284.11 421.93 289.11 363.57 293 311.88 303.01 274.64 314.68 245.74 325.24 257.41 341.36 295.76 352.48 361.35 357.48 417.49 361.93 562 365.26 654.26 365.26 720.96 358.59 776.54 350.81 807.11 334.69"/>
      <path class="cls-4" d="M816.01,324.13v-20.09l-20.01-29.75-108.2-20.01-85.97-5.19h-160.02l-106.77,8.89-66.7,15.56-19.26,8.3s-8.65,18.72-7.63,21.26c.52,1.31-.85,12.97,4.29,22.13,4.83,8.61,11.67,16.12,11.67,16.12l-11.67-16.12,28.9-10.56,37.24-11.67,51.69-10,79.29-4.74,85.97-4.16h77.07l55.03,3.89,87.26,11.12,67.81,25.01Z"/>
      <polygon class="cls-6" points="222.7 60.65 247.93 94.82 277.7 137.69 302.18 169.37 367.42 222.44 386.23 248.07 445.48 348.2 416.15 349.4 364.58 261.05 350.94 241.87 295.79 205.02 262.29 187.34 229 141.14 205.4 103.9 203.13 83.66 207.87 70.44 222.7 60.65"/>
      <polygon class="cls-10" points="249.49 437.12 244.63 455.86 271.73 467.59 336.48 488.28 411.15 498.88 492.94 504.99 572.45 504.99 628.93 499.9 686.81 492.78 750.03 477.51 811.09 461.23 822.28 453.38 816.01 439.18 596.36 467.84 372.48 459.19 261.55 427.65 249.49 437.12"/>
      <polygon class="cls-8" points="235.27 425.23 242.11 403.56 255.21 400.65 269.83 416.21 315.22 431.75 370.24 446.59 441.94 453.82 503.64 453.82 557 453.82 613.69 450.49 649.82 445.48 696.51 439.92 745.36 429.98 790.31 418.87 816.01 403.8 824.34 413.25 824.34 427.23 820.45 438.81 795.44 447.71 748.75 462.16 704.29 471.05 652.04 478.28 605.91 484.95 553.66 488.28 493.63 488.28 439.16 485.5 384.14 480.5 343.01 471.05 293.46 456.72 262.05 444.47 245.74 434.92 235.27 425.23"/>
      <polygon class="cls-1" points="207.87 70.44 211.97 86.55 216.8 103.8 267.83 176.98 358.28 233.05 425.05 349.04 416.15 349.4 363.26 259.2 350.94 241.87 295.79 205.02 262.29 187.34 205.4 103.9 203.13 83.66 207.87 70.44"/>
      <polygon class="cls-3" points="824.34 427.23 800.49 435.53 748.59 451.65 698.6 462.33 624.56 473.4 584.55 476.45 478.02 479.51 413.52 474.54 373.83 468.06 320.79 455.08 277.28 441.34 249.81 429.89 237.25 418.96 235.27 425.23 244.63 434.29 249.49 437.12 262.05 444.47 293.46 456.72 335.61 468.91 348.18 472.96 384.14 480.5 429.75 484.65 441.11 485.6 454.88 486.3 493.63 488.28 553.66 488.28 605.91 484.95 704.29 471.05 748.75 462.16 795.44 447.71 820.45 438.81 824.34 427.23"/>
      <polygon class="cls-10" points="888.26 799.35 836.51 833.24 785.12 859.7 732.1 876.98 668.75 892.63 575.63 899.88 453.89 901.4 372.6 891.48 299.18 873.44 235.27 843.93 189.05 816.02 231.29 854.93 296.88 890.5 365.8 916.07 459.17 931.63 578.12 931.63 672.61 918.29 735.97 900.51 796 873.83 840.46 848.26 888.26 799.35"/>
      <path class="cls-11" d="M715.56,400.65s-233.87,359.5-554.3,373.13l27.79,42.24,42.24,38.91,65.59,35.57,68.92,25.57,93.38,15.56h118.94l94.49-13.34,63.36-17.79,60.03-26.68,44.47-25.57,47.8-48.91,30.01-61.14v-57.8l-13.34-52.25-16.67-40.02-36.03-70.95-23.4-48.98-12.37-27.98,3.98-1.42,3.89-11.58v-13.99l-8.34-9.45-1.37.81-.18-4.54-1.02-25.76-42.63,14.86-57.45,11.49h2.2Z"/>
      <path class="cls-13" d="M239.54,429.08s38.92-3.67,43.46-9.33"/>
      <path class="cls-13" d="M278.87,451.03s46.34-5.15,51.46-16.01"/>
      <path class="cls-13" d="M333.79,468.38s37.64-6.52,44.53-22.3"/>
      <path class="cls-13" d="M396.1,482.17s38.84-15.14,40.37-29.17"/>
      <path class="cls-13" d="M462.88,487.55s43.85-16.27,49.65-34.55"/>
      <path class="cls-13" d="M542.17,488.28s36.77-13.91,40.35-35.96"/>
      <path class="cls-13" d="M615.47,483.6s35.65-15.26,37.91-38.54"/>
      <path class="cls-13" d="M694.53,472.96s27.31-18.7,28.5-39.22"/>
      <path class="cls-13" d="M762.01,457.97s27.82-19,24.42-39.01"/>
      <polygon class="cls-7" points="283.67 530.52 246.88 518.02 218.39 539.58 215.4 637.76 234.41 712.28 271.71 624.73 283.67 530.52"/>
    </g>
  </g>
</svg>