<?xml version="1.0" encoding="UTF-8"?>
<svg xmlns="http://www.w3.org/2000/svg" viewBox="0 0 1016.49 984.67">
  <defs>
    <style>
      .cls-1 {
        fill: #919da7;
      }

      .cls-1, .cls-2, .cls-3, .cls-4, .cls-5, .cls-6, .cls-7, .cls-8, .cls-9, .cls-10, .cls-11, .cls-12, .cls-13 {
        stroke-width: 0px;
      }

      .cls-2 {
        opacity: .63;
      }

      .cls-2, .cls-3, .cls-5, .cls-8 {
        fill: #fff;
      }

      .cls-2, .cls-3, .cls-5, .cls-8, .cls-9 {
        mix-blend-mode: soft-light;
      }

      .cls-3 {
        opacity: .55;
      }

      .cls-14 {
        isolation: isolate;
      }

      .cls-4 {
        fill: #a0aeb8;
      }

      .cls-5 {
        opacity: .56;
      }

      .cls-6 {
        fill: #b8c6d0;
      }

      .cls-7 {
        fill: #afbbbe;
      }

      .cls-8 {
        opacity: .59;
      }

      .cls-9 {
        fill: #120000;
        opacity: .62;
      }

      .cls-10 {
        fill: #a5b2bb;
      }

      .cls-11 {
        fill: #b36e59;
      }

      .cls-12 {
        fill: #96a3ab;
      }

      .cls-13 {
        fill: #9f624f;
      }
    </style>
  </defs>
  <g class="cls-14">
    <g id="Layer_31" data-name="Layer 31">
      <polygon class="cls-11" points="386.24 403.57 386.24 902.64 353.59 935.29 287.13 935.29 245.15 903.81 245.15 409.73 386.24 403.57"/>
      <polygon class="cls-11" points="392.07 128.97 392.07 60.76 357.09 31.6 277.8 31.6 234.66 58.42 234.66 128.97 392.07 128.97"/>
      <rect class="cls-4" x="74.33" y="128.97" width="496.74" height="280.76"/>
      <polygon class="cls-4" points="889.86 432.16 933.81 466.37 978.12 507.18 1001.44 545.66 1005.42 935.29 902.26 935.29 903.49 566.65 889.86 547.99 865.01 521.17 840.52 507.18 800.5 497.06 889.86 432.16"/>
      <polygon class="cls-12" points="811.52 499.85 892.23 434 904.77 443.77 830.46 504.64 811.52 499.85"/>
      <polygon class="cls-6" points="744.05 116.73 744.05 214.67 707.33 228.52 701.22 274.7 714.96 320.11 742.06 352.55 781.36 372.09 807.01 372.09 845.49 345.27 862.98 310.29 871.43 264.01 850.16 217.01 811.68 211.18 811.68 116.73 902.63 116.73 930.62 151.12 950.44 197.18 964.43 254.32 958.6 339.44 924.79 401.24 894.2 432.31 856.04 465.07 802.23 507.11 744.6 540.69 723.06 584.31 711.4 612.3 709.07 935.29 608.79 935.29 608.79 560.99 629.77 526.01 658.93 481.7 680.87 465.07 711.4 445.55 678.75 425.73 647.27 409.4 615.78 372.09 602.96 327.78 597.67 265.41 602.96 218.17 623.63 152.07 662.17 120.01 744.05 116.73"/>
      <rect class="cls-1" x="74.33" y="128.97" width="239.04" height="280.76"/>
      <polygon class="cls-13" points="313.37 409.73 313.37 935.29 287.13 935.29 245.15 903.81 245.15 409.73 313.37 409.73"/>
      <polygon class="cls-13" points="313.37 128.97 313.37 31.6 277.8 31.6 234.66 58.42 234.66 128.97 313.37 128.97"/>
      <polygon class="cls-7" points="74.33 128.97 85.31 154.45 560.06 154.45 571.06 128.97 74.33 128.97"/>
      <polygon class="cls-10" points="744.05 185.44 686.25 208.85 678.11 281.1 696.94 330.46 728.49 370.15 763.6 387.96 781.05 393.55 807.56 372.09 781.36 372.09 742.06 352.55 714.96 320.11 701.22 274.7 707.33 228.52 744.05 214.67 744.05 185.44"/>
      <polygon class="cls-10" points="811.68 181.12 867.35 196.76 892.92 260.49 884.14 314.69 860.86 357.43 658.93 481.7 681.77 464.5 807.01 372.09 844.74 345.79 862.98 310.29 871.43 264.01 850.16 217.01 811.68 211.18 811.68 181.12"/>
      <polygon class="cls-2" points="744.05 116.73 602.12 317.92 597.67 265.41 602.96 218.17 623.63 152.07 662.17 120.01 744.05 116.73"/>
      <polygon class="cls-8" points="859.72 116.73 811.68 193.03 811.68 211.18 850.16 217.01 913.65 130.28 902.63 116.73 859.72 116.73"/>
      <polygon class="cls-5" points="710.23 304.48 633.8 396.06 647.27 409.4 673.99 423.26 736.91 346.39 714.96 320.11 710.23 304.48"/>
      <polygon class="cls-3" points="540.69 128.97 344.4 409.73 571.06 409.73 571.06 128.97 540.69 128.97"/>
      <polygon class="cls-9" points="245.15 409.73 313.37 447.79 386.24 409.73 245.15 409.73"/>
    </g>
  </g>
</svg>