<?xml version="1.0" encoding="UTF-8"?>
<svg xmlns="http://www.w3.org/2000/svg" viewBox="0 0 1016.49 1008.08">
  <defs>
    <style>
      .cls-1 {
        fill: #fff;
        opacity: .34;
      }

      .cls-1, .cls-2, .cls-3, .cls-4, .cls-5, .cls-6, .cls-7, .cls-8, .cls-9, .cls-10, .cls-11, .cls-12, .cls-13, .cls-14, .cls-15, .cls-16, .cls-17 {
        stroke-width: 0px;
      }

      .cls-1, .cls-5 {
        mix-blend-mode: soft-light;
      }

      .cls-2 {
        fill: #8b4336;
      }

      .cls-3 {
        fill: #9b4c3e;
      }

      .cls-18 {
        isolation: isolate;
      }

      .cls-4 {
        fill: none;
      }

      .cls-5 {
        fill: #1b0000;
        opacity: .36;
      }

      .cls-6 {
        fill: #c17b4b;
      }

      .cls-7 {
        fill: #cb814f;
      }

      .cls-19 {
        opacity: .48;
      }

      .cls-8 {
        fill: #808991;
      }

      .cls-9 {
        fill: #572318;
        opacity: .18;
      }

      .cls-10 {
        fill: #eda361;
      }

      .cls-11 {
        fill: #713428;
      }

      .cls-12 {
        fill: #8b969d;
      }

      .cls-13 {
        fill: #9ca7b0;
      }

      .cls-14 {
        fill: #7d3b2f;
      }

      .cls-15 {
        fill: #a9b5be;
      }

      .cls-16 {
        fill: #c9d7e0;
      }

      .cls-17 {
        fill: #e59658;
      }
    </style>
  </defs>
  <g class="cls-18">
    <g id="Layer_15" data-name="Layer 15">
      <polygon class="cls-4" points="399.51 67.66 477.54 127.55 537.61 145.26 603.23 160.45 656.84 166.35 675.32 159.6 686.42 148.64 692.89 121.65 698.43 98.87 749.26 161.29 749.26 173.94 743.72 201.78 744.64 236.36 754.81 260.83 754.81 272.64 748.34 272.64 739.1 262.51 725.23 262.51 717.84 267.57 709.52 343.49 707.67 465.8 702.13 520.63 689.19 574.61 669.78 640.41 641.13 691.02 600.46 741.63 565.34 779.59 516.36 826.82 460.9 872.37 423.93 904.43 399.51 924.67 399.51 71.88 399.51 67.66"/>
      <polygon class="cls-8" points="541.19 79.36 618.01 139.24 743.7 172.14 776.73 175.78 802.18 171.39 820.36 151.22 843.76 99.91 854.65 185.03 853.4 280.2 849.99 355.18 847.9 479.92 842.6 532.32 829.66 586.31 810.25 652.1 781.6 702.71 740.93 753.32 705.81 791.28 656.83 838.52 541.19 936.55 530.52 83.15 530.52 67.78 541.19 79.36"/>
      <polygon class="cls-12" points="541.19 79.54 464.37 139.43 338.68 172.32 305.65 175.96 280.2 171.57 262 179.73 227.73 185.21 228.98 280.39 232.39 355.37 234.48 480.1 239.78 532.5 252.72 586.49 272.13 652.28 300.78 702.89 341.45 753.5 376.57 791.46 425.55 838.7 541.19 936.55 551.86 83.33 541.19 79.54"/>
      <g>
        <polygon class="cls-15" points="540.26 63.87 618.29 123.76 678.36 141.47 743.98 156.65 797.59 162.56 816.07 155.81 827.16 144.84 833.63 117.85 839.18 95.08 850.33 264.72 850.27 339.69 848.42 462 842.88 516.83 829.94 570.82 810.53 636.61 781.88 687.22 741.21 737.83 706.09 775.79 657.11 823.03 601.65 868.58 564.68 900.63 541.47 920.87 540.26 68.08 540.26 63.87"/>
        <polygon class="cls-15" points="530.79 52.29 451.49 127.28 403.37 141.47 337.75 156.65 284.14 162.56 265.66 155.81 254.57 144.84 238.17 120.59 216.01 92.47 210.15 174.14 223.14 263.78 231.46 339.69 233.31 462 238.85 516.83 251.79 570.82 271.2 636.61 299.85 687.22 340.52 737.83 375.64 775.79 424.62 823.03 480.08 868.58 517.05 900.63 541.47 920.87 541.47 68.08 530.79 52.29"/>
      </g>
      <polygon class="cls-13" points="541.47 63.87 618.29 123.76 743.98 156.65 777.01 160.29 802.46 155.9 820.64 135.73 844.04 84.42 854.93 169.54 853.67 264.72 850.27 339.69 848.18 464.43 842.88 516.83 829.94 570.82 810.53 636.61 781.88 687.22 741.21 737.83 706.09 775.79 657.11 823.03 541.47 920.87 530.79 67.66 530.79 52.29 541.47 63.87"/>
      <polygon class="cls-14" points="532.07 169.54 449.77 208.48 402.79 224.37 361.97 234.35 323.34 235.4 294.65 236.18 266 240.39 266 269.92 270.86 304.64 281.35 418.52 292.38 542.67 300.2 602.26 316.84 633.47 339.02 667.21 381.53 716.98 412.03 747.35 443.95 773.99 455.47 783.62 540.26 841.82 575.56 813.33 604.33 788.19 637.54 759.15 666.24 727.94 705.01 685.77 762.31 611.54 777.99 498.09 785.51 419.49 790.12 343.74 795.59 236.18 771.44 235.97 717.91 234.49 671.03 225.15 617.21 210.03 532.07 169.54"/>
      <polygon class="cls-3" points="532.26 184.58 453.18 221.2 408.18 236.42 369.08 245.98 332.08 246.98 304.61 247.73 277.16 251.77 277.16 280.05 281.81 313.3 291.86 422.39 302.42 541.3 309.92 598.38 325.85 628.28 347.1 660.6 387.82 708.26 417.04 737.35 447.61 762.88 476.53 787.03 539.92 835.46 577.85 801.76 604.29 777.36 633.04 748.66 660.53 718.77 697.67 678.37 752.56 607.27 767.58 498.6 774.77 423.31 779.19 350.76 784.43 247.73 761.03 247.36 710.02 246.11 665.12 237.16 613.57 222.68 532.26 184.58"/>
      <polygon class="cls-2" points="532.26 184.58 539.92 835.46 577.85 801.76 604.29 777.36 633.04 748.66 660.53 718.77 697.67 678.37 752.56 607.27 767.58 498.6 774.77 423.31 779.19 350.76 784.43 247.73 761.03 247.36 710.02 246.11 665.12 237.16 613.57 222.68 532.26 184.58"/>
      <polygon class="cls-14" points="395.11 235.58 400.13 271.46 411 290.54 400.96 340.15 399.51 492.37 403.06 631.71 417.69 664.53 417.69 715.67 417.69 743.91 429.4 754.59 429.4 659.19 412.25 627.9 412.25 501.2 412.25 483.64 408.49 456.16 412.25 341.68 422.71 279.09 408.49 263.82 395.11 235.58"/>
      <polygon class="cls-14" points="296.99 244.74 308.69 319.54 302.84 242.2 296.99 244.74"/>
      <polygon class="cls-14" points="603.63 210.91 603.63 255.94 617.84 327.68 627.88 397.14 632.9 448.28 624.53 496.17 632.9 520.79 618.26 578.79 618.26 643.67 611.15 722.28 603.63 773.42 589.41 795.56 601.95 784.11 615.33 772.66 619.51 721.52 625.37 639.09 627.88 572.69 646.28 509.68 635.4 492.37 646.28 442.93 637.91 394.85 628.71 319.54 613.66 249.83 611.15 210.91 603.63 210.91"/>
      <path class="cls-14" d="M692.86,235.58l5.54,23.41,6.69,28.49,5.58,35.62,5.58,39.18,4.46,37.65v77.85l-2.79,38.67-8.36,27.99-10.04,41.72,15.05-39.18,10.59-31.04s3.35-38.67,3.35-40.2,2.79-38.16,2.79-38.16v-13.74l-2.79-27.48-3.35-39.18-6.13-37.65-6.95-31.55-5.87-35.11-4.46-17.3h-8.89Z"/>
      <g class="cls-19">
        <path class="cls-11" d="M532.28,351.62s-8.28,38.03-43.34,43.55c-35.07,5.53-78.03,7.11-78.03,7.11,0,0,26.3,61.58,19.29,90-7.01,28.42,104.56,105.78,104.56,105.78l-2.47-246.45Z"/>
        <path class="cls-11" d="M532.28,351.62s13.21,38.03,48.28,43.55c35.07,5.53,78.03,7.11,78.03,7.11,0,0-26.3,61.58-19.29,90s-104.56,105.78-104.56,105.78l-2.47-246.45Z"/>
      </g>
      <g>
        <path class="cls-10" d="M532.35,341.3s-7.89,36.76-41.35,42.1-74.43,6.87-74.43,6.87c0,0,25.09,59.53,18.4,87.01-6.69,27.48,99.73,102.27,99.73,102.27l-2.36-238.25Z"/>
        <path class="cls-17" d="M532.35,341.3s12.6,36.76,46.06,42.1,74.43,6.87,74.43,6.87c0,0-25.09,59.53-18.4,87.01,6.69,27.48-99.73,102.27-99.73,102.27l-2.36-238.25Z"/>
      </g>
      <path class="cls-7" d="M532.75,365.72s-6.55,30.53-34.33,34.96c-27.78,4.44-61.8,5.7-61.8,5.7,0,0,20.83,49.43,15.28,72.25-5.56,22.82,82.81,84.92,82.81,84.92l-1.96-197.83Z"/>
      <path class="cls-6" d="M532.75,365.72s10.47,30.53,38.24,34.96c27.78,4.44,61.8,5.7,61.8,5.7,0,0-20.83,49.43-15.28,72.25,5.56,22.82-82.81,84.92-82.81,84.92l-1.96-197.83Z"/>
      <polygon class="cls-16" points="216.01 92.47 236.17 132.31 249.19 154.49 259.37 165.6 282.27 175.35 342.05 167.97 437.71 145.58 462.77 131.33 530.79 63.87 530.79 52.29 451.49 127.28 395.11 143.38 337.75 156.65 284.14 162.56 265.66 155.81 254.57 144.84 238.17 120.59 234.55 116 216.01 92.47"/>
      <polygon class="cls-16" points="530.79 63.87 602.45 122.94 614.28 132.35 742 165.6 778.12 169.54 809.16 163.14 830.02 139.22 844.04 84.42 820.64 135.73 802.46 155.9 777.01 160.29 743.98 156.65 618.29 123.76 605.84 114.2 550.06 70.56 541.47 62.64 530.79 52.29 530.79 63.87"/>
      <g id="Layer_16" data-name="Layer 16">
        <polygon class="cls-9" points="795.59 236.18 792.44 298.04 705.09 287.49 612.63 267.11 554.87 246.08 531.29 233.79 507.3 246.08 459.98 261.37 421.81 271.26 373.4 280.87 303.99 289.51 269.08 291.88 266 269.92 266 240.39 361.97 234.35 407.21 222.87 449.77 208.48 532.07 169.54 617.21 210.03 652.84 220.04 717.91 234.49 795.59 236.18"/>
      </g>
      <g id="Layer_17" data-name="Layer 17">
        <path class="cls-5" d="M849.2,403.59s-342.17,350.08-542.7,306.41l34.04,42.36,36.04,39.1,38.41,37.04,38.06,33.46,49.34,41.75,38.81,32.84,61.19-51.87,50.55-42.86,33.76-32.1,20.38-19.8,37.28-40.85,37.24-46.35,16.64-29.4,12.01-21.21,18.93-64.16,13.42-55.62,5.24-51.8,1.36-76.93Z"/>
      </g>
      <g id="Layer_18" data-name="Layer 18">
        <path class="cls-1" d="M233.12,449.18s336.79-189.94,349.65-352.96l-24.26-19.16-10.52-7.8-17.2-17.24-79.3,74.99-58.34,16.66-55.41,12.71-53.61,5.9-18.48-6.75-11.09-10.97-16.04-23.29-22.52-29.08-5.85,81.67,9.2,63.48,3.79,26.16,8.32,75.92,1.04,75.57.62,34.19Z"/>
      </g>
    </g>
  </g>
</svg>