<?xml version="1.0" encoding="UTF-8"?>
<svg xmlns="http://www.w3.org/2000/svg" viewBox="0 0 1016.49 984.67">
  <defs>
    <style>
      .cls-1 {
        fill: #8a5443;
      }

      .cls-1, .cls-2, .cls-3, .cls-4, .cls-5, .cls-6, .cls-7, .cls-8, .cls-9, .cls-10, .cls-11, .cls-12, .cls-13, .cls-14, .cls-15 {
        stroke-width: 0px;
      }

      .cls-2 {
        fill: #d2836a;
      }

      .cls-3 {
        fill: #905947;
      }

      .cls-4 {
        fill: #bb765f;
      }

      .cls-16 {
        isolation: isolate;
      }

      .cls-5 {
        fill: #b9725d;
      }

      .cls-6 {
        fill: #cd9b6e;
      }

      .cls-7 {
        opacity: .41;
      }

      .cls-7, .cls-14 {
        fill: #fff;
        mix-blend-mode: overlay;
      }

      .cls-17 {
        fill: #e1d3c0;
        stroke: #9e695b;
        stroke-miterlimit: 10;
        stroke-width: 4px;
      }

      .cls-8 {
        fill: #945b49;
      }

      .cls-9 {
        fill: #fcbc85;
      }

      .cls-10 {
        fill: #975d4b;
      }

      .cls-11 {
        fill: #b36e59;
      }

      .cls-12 {
        fill: #a68667;
      }

      .cls-13 {
        fill: #aa6955;
      }

      .cls-14 {
        opacity: .09;
      }

      .cls-15 {
        fill: #9c604d;
      }
    </style>
  </defs>
  <g class="cls-16">
    <g id="Layer_34" data-name="Layer 34">
      <polygon class="cls-15" points="986.23 521.47 989.48 539.4 998.11 566.14 1003.42 587.04 1003.42 608.95 1003.42 629.19 1000.76 642.8 994.82 657.07 983.5 672.33 963.92 692.91 947.33 700.21 942.69 702.2 888.59 593.02 860.38 449.99 874.43 411.75 889.26 403.19 955.3 424.1 984.17 485.16 986.23 521.47"/>
      <polygon class="cls-1" points="869.8 423.98 867.65 411.21 899.83 394.08 950.03 428.63 964.5 462.29 972.18 496.54 976.01 519.57 986.23 521.47 987.82 530.25 971.58 532.27 961.55 524 956.23 487.98 939.39 454.1 918.57 436.08 895.39 426.49 869.8 423.98"/>
      <path class="cls-11" d="M864.94,352.82h30.95l31.19,12.54,25.55,18.92,22.23,22.57,11.62,18.25,10.29,23.23,3.98,26.55v23.89l-4.98,17.92-15.93,7.96s-6.97-4.98-7.3-7.3-4.31-33.52-4.31-33.52l-14.27-33.19-21.12-21.9-27.33-11.95-24.56-5.31-6.53.26-9.5-58.93Z"/>
      <path class="cls-8" d="M292.84,155.38l-22.75-30.54-39.66-25.88-37.83-2.99-37.33,11.45-34.35,25.39-24.89,22.57-16.92,44.63v46.29l7.96,70.19,8.96,41.81s4.98,34.35,6.97,36.84,8.46,39.82,8.46,39.82l1.44,5.32,50.33-86.46-4.98-21.9-9.46-30.86-3.48-36.34-2.49-33.35,3.48-32.36,10.45-16.92,10.95-9.96,20.41-2.99,20.91,10.95,15.93,13.44,5.97,15.43,1.08,12.98,40.73-3.53,20.1-63.05Z"/>
      <polygon class="cls-4" points="188.12 169.15 161.27 162.83 134.11 161.06 107.83 169.15 85.63 182.82 96.03 155.38 120.92 132.81 155.27 107.42 192.6 95.98 230.43 98.96 270.09 124.85 293.75 156.73 303.4 167.95 288.04 192.95 261.14 209.49 232.53 217.56 230.43 207.68 224.96 193.54 209.03 180.1 188.12 169.15"/>
      <path class="cls-11" d="M164.89,339.64l52.77-88.11,24.64-50.77,38.08-38.08,30.61-17.92,98.56-26.88,76.16-8.21,155.31,2.24,43.31,8.96,76.16,37.33,58.24,56,29.87,73.92,14.93,56,13.44,91.1,25.39,73.92,21.65,56.75,14.93,62.72,3.73,78.4-13.44,48.53-31.36,29.87-49.49,25.94-47.58,12.14h-129.18l-29.12-6.72-60.48,17.17-62.72,6.72h-77.65l-68.69-8.96-72.43-18.67-72.43-15.68-35.09-8.96-62.72-49.28-29.12-48.53s-23.89-56.75-24.64-58.99,11.2-121.71,11.2-121.71l35.09-97.07,42.06-73.17Z"/>
      <path class="cls-13" d="M156.38,339.64l52.77-88.11,24.64-50.77,38.08-38.08,30.61-17.92,98.56-26.88,76.16-8.21,84.38-5.23,70.93,7.47,43.31,8.96-33.3,695.91-60.48,17.17-61.91,6.72h-86.98l-68.69-8.96-72.43-18.67-72.43-15.68-35.09-8.96-62.72-49.28-29.12-48.53s-23.89-56.75-24.64-58.99,11.2-121.71,11.2-121.71l35.09-97.07,42.06-73.17Z"/>
      <polygon class="cls-10" points="567.17 637.19 690.2 637.19 739.52 635.71 785.28 624.79 822.06 590.53 564.71 623.61 567.17 637.19"/>
      <path class="cls-10" d="M244.3,190.25l44.34,15.55,17.72,56.69,7.97,155.81,2.66,104.18,26.57,72.64,62.45,38.98,108.51,3.1h52.66v-15.3h-126.42s-53.35-44.49-52.46-45.82-16.38-301.18-16.38-301.18l-17.28-79.28-43.85-33.22-41.68,3.06-24.8,24.8Z"/>
      <polygon class="cls-2" points="261.14 173.41 299.88 176.37 331.73 205.74 336.71 261.49 334.22 306.29 336.71 402.86 341.19 510.88 343.68 529.8 362.6 572.61 386.49 598.49 417.85 615.92 440.75 621.89 522.39 621.89 742.91 621.89 782.73 612.93 822.06 590.53 845.45 561.66 865.86 525.32 873.33 480.52 879.31 442.01 863.54 344.12 848.6 288.12 818.74 214.2 760.5 158.2 684.33 120.86 641.03 111.9 561.58 104.44 477.2 109.66 401.04 117.88 302.48 144.76 271.87 162.68 261.14 173.41"/>
      <polygon class="cls-6" points="611.49 502.09 636.2 508.06 651.8 517.68 665.07 541.91 669.72 561.15 669.72 658.72 636.71 718.79 633.12 723.43 607.99 723.43 567.17 657.73 567.17 549.87 573.48 530.96 583.77 520 596.6 507.17 611.49 502.09"/>
      <polygon class="cls-9" points="611.49 502.09 648.33 503.42 663.92 513.04 677.2 537.26 681.84 556.51 681.84 654.08 636.71 718.79 620.12 718.79 579.3 653.08 579.3 545.23 585.61 526.31 595.89 515.36 604.85 506.4 611.49 502.09"/>
      <polygon class="cls-3" points="289.17 433.72 300.39 480.89 300.39 593.83 288.88 653.63 265.85 702.79 237.06 727.15 194.34 741.96 130.55 732.68 110.63 720.53 92.66 690.58 67.99 634.88 145.82 583.16 289.17 433.72"/>
      <path class="cls-10" d="M278.72,418.29l10.45,15.43,3.67,26.38,2.8,28.87-2.8,100.55-8.15,26.38-9.46,34.35-14.93,26.38s-10.45,18.42-12.44,19.91-14.44,15.43-14.44,15.43l-29.37,6.8-35.84-4.31-29.87-2.49-20.91-9.96-33.38-36.45-16.07-30.71-1.85-20.28,6.49-59.42,2.68-31.95,98.03-82.95,105.37-21.99Z"/>
      <polygon class="cls-1" points="288.88 431.58 237.89 558.65 203.94 578.73 169.39 583.16 123.73 573.6 85.53 548.02 74.47 533.32 75.32 523.23 79.11 531.29 93.38 543.78 185.97 566.92 268.01 432.27 278.72 418.29 288.88 431.58"/>
      <path class="cls-5" d="M278.72,410.33l-29.87-38.83-27.38-13.44-40.32-11.45h-29.87l-23.4,3.48-31.36,32.36-23.89,49.78-3.98,45.54s-1.49,31.12,0,32.61,10.45,20.91,10.45,20.91l19.91,17.42,30.37,15.93,39.82,8.96s26.88-2.49,29.37-2.99,28.37-17.42,28.37-17.42l13.94-32.85,13.44-33.35,12.44-31.36,11.95-32.36v-12.94Z"/>
      <polygon class="cls-12" points="107.05 518.39 124.76 518.39 141.3 528.83 134.8 572.72 107.05 600.47 101.04 596.29 96.42 559.43 107.05 518.39"/>
      <polygon class="cls-6" points="101.04 514.21 118.75 514.21 135.29 524.65 128.79 568.54 101.04 596.29 90.41 555.25 101.04 514.21"/>
      <polygon class="cls-14" points="470.46 110.39 822.06 590.53 845.45 561.66 865.86 525.32 879.31 442.01 863.54 344.12 848.6 288.12 818.74 214.2 760.5 158.2 684.33 120.86 641.03 111.9 561.58 104.44 470.46 110.39"/>
      <polygon class="cls-7" points="611.49 502.09 651.8 697.15 681.84 654.08 681.84 556.51 677.2 537.26 663.92 513.04 648.33 503.42 611.49 502.09"/>
      <line class="cls-17" x1="697.39" y1="613.86" x2="721.31" y2="613.86"/>
      <line class="cls-17" x1="762.67" y1="610.44" x2="787.47" y2="600.47"/>
      <line class="cls-17" x1="812.28" y1="583.16" x2="828.94" y2="562.86"/>
      <line class="cls-17" x1="845.63" y1="536.84" x2="857.62" y2="509.54"/>
      <line class="cls-17" x1="863.7" y1="481.94" x2="871.06" y2="453.9"/>
      <line class="cls-17" x1="555.83" y1="613.86" x2="529.26" y2="612.76"/>
      <line class="cls-17" x1="484.08" y1="612.76" x2="455.73" y2="612.76"/>
      <line class="cls-17" x1="424.73" y1="605.46" x2="403.47" y2="593.61"/>
      <line class="cls-17" x1="379.55" y1="571.29" x2="366.71" y2="550.21"/>
      <line class="cls-17" x1="356.52" y1="520.98" x2="352.98" y2="495.29"/>
      <line class="cls-17" x1="352.98" y1="461.63" x2="350.35" y2="432.31"/>
      <line class="cls-17" x1="349.88" y1="389.87" x2="349.88" y2="357.98"/>
      <line class="cls-17" x1="349.88" y1="325.36" x2="349.88" y2="295.24"/>
      <line class="cls-17" x1="349.88" y1="264.74" x2="346.99" y2="232.15"/>
      <line class="cls-17" x1="313.78" y1="172.11" x2="287.28" y2="164.4"/>
      <line class="cls-17" x1="330.38" y1="182.81" x2="344.56" y2="204.39"/>
    </g>
  </g>
</svg>