<?xml version="1.0" encoding="UTF-8"?>
<svg id="magic_2_copy" data-name="magic 2 copy" xmlns="http://www.w3.org/2000/svg" viewBox="0 0 1016.49 1008.08">
  <defs>
    <style>
      .cls-1 {
        fill: #604d7b;
      }

      .cls-1, .cls-2, .cls-3, .cls-4 {
        stroke-width: 0px;
      }

      .cls-2 {
        fill: #ec9f6a;
      }

      .cls-3 {
        fill: #4f3f67;
      }

      .cls-4 {
        fill: #695586;
      }
    </style>
  </defs>
  <path class="cls-4" d="M1016.49,514.52l-16.13,52.64-219.91,143.5-47.55-5.94-9.34,37.36-95.1,59.44-27.17,15.28-147.74,15.28-39.06,9.34-16.13,11.89-138.4-63.68-50.1-12.74s-96.8-21.23-99.34-21.23-23.77-7.64-23.77-7.64l-24.62-28.87,48.82-45.71,70.05-49.67,60.29-24.2,51.37-15.28,39.48-8.49.85-26.75,6.37-9.76,8.07-10.61-8.07-14.15s-4.67-15.99-5.09-18.11,7.74-22.5,7.74-22.5l6.7-12.31,14.86-8.49,2.97-22.08,5.94-18.68,10.61-18.68-2.97-18.68,3.82-9.76,3.82-7.22-8.49-11.89-2.12-11.89-12.74,9.76-13.16,8.92-16.56,5.52-15.28,1.27-5.94,2.12-2.12,28.87-1.7,57.31.85,25.9-33.11,68.49-48.13-32.78-12.16-56.8-22.5-46.7-12.31-48.54-2.97-36.51-.42-26.75,3.4-24.2,16.56-33.11,31.84-36.51,25.9-28.02,33.11-33.96,18.11-6.27,33.26-8.59h46.28l21.65,4.67,53.07,23.35,38.21,14.01,50.95,24.2,25.47,22.93,17.41,34.81,22.08,31.42,30.14,38.63,16.13,25.05,21.23,30.14,5.94,30.14,4.67,8.07,23.35,15.71,6.79,5.94-5.09,46.13,5.52,7.36,20.8,15.71,9.76,16.13,19.1-4.67,8.52-1.03,36.91-4.48,42.03-3.82,33.96-1.7,35.24.85,41.61.42,16.98,2.55,26.75,5.94v2.41Z"/>
  <path class="cls-3" d="M1016.49,514.52l-66.23,47.69-78.12,46.42-53.21,28.87s-31.7,20.38-33.96,20.38-38.49-1.13-40.19,0-54.34-2.83-54.34-2.83l29.44,30,11.32,14.15-7.92,8.49-29.44,14.15-41.89,28.87-16.98,14.72-40.19,10.19-63.96,11.89-56.04,7.92-41.89,3.96-36.23,13.02-16.98-9.06-35.66-18.11s-39.62-17.55-41.32-17.55-26.04-3.4-27.74-3.96-33.96-6.23-33.96-6.23c0,0,12.45-19.25,14.72-19.81s27.74-21.51,27.74-21.51l6.79-11.89-36.79,18.11-24.34,18.11s-12.45-6.23-16.42-7.92c-3.96-1.7-28.87-2.26-28.87-2.26l-27.74-3.4-34.53-7.36-31.7,2.26-27.74-2.69,24.62,28.87,22.08,7.33,101.03,21.54,50.1,12.74,138.4,63.68,16.13-11.89,39.06-9.34,147.74-15.28,27.17-15.28,95.1-59.44,9.91-33.26,5.09-3.96,41.89,5.8,219.91-143.5,16.13-52.64Z"/>
  <polygon class="cls-4" points="229.23 509.62 204.2 521.36 182.69 521.36 164.57 515.49 145.89 509.62 130.61 493.72 114.19 479 106.83 479 102.87 488.48 102.87 505.6 110.23 521.36 126.65 536.74 149.85 550.89 178.72 561.64 209.29 567.87 242.12 562.21 275.52 550.32 310.47 473.9 229.23 509.62"/>
  <path class="cls-3" d="M694.26,411.07l20.93,13.11,9.21,8.54-5.09,46.13,26.32,23.07,11.32,19.44-11.32,13.77-29.44,25.47-32.83,18.11-30.57,11.89s-45.28,15.28-46.98,15.28-54.34,9.62-54.34,9.62h-87.74l-44.15-5.09-44.15-14.15-27.74-6.79-17.55-10.76,2.83-29.67,14.43-20.38-8.07-14.15-5.09-18.11,4.99-15.45,2.75-7.05,6.7-12.31,14.86-8.49-1.7,12.41,15.28,8.4,30,9.15,26.04,1.13,38.49,4.29h61.13l30.57-4.86,28.87-9.72,32.83-9.53,19.81-7.36,20.38-15.28,21.51-17.55,7.5-13.11Z"/>
  <polygon class="cls-1" points="784.83 513.29 778.46 535.13 752.14 564.43 716.48 585.23 671.48 607.31 632 617.5 595.06 625.56 555.15 634.05 518.64 637.45 474.91 637.45 435.43 634.05 387.88 624.71 350.95 617.92 317.83 597.97 307.4 581.11 330.14 576.22 347.69 589.48 370.57 595.08 405.22 605.82 421.9 610.69 448.21 613.72 466.42 615.51 549.63 615.51 605.82 605.89 683.37 578.72 713.56 562.06 745.63 535.13 756.95 521.36 755.07 518.14 774.5 513.39 784.83 513.29"/>
  <polygon class="cls-2" points="522.73 488.48 544.04 615.51 605.82 605.89 683.37 578.72 713.56 562.06 745.63 535.13 686.76 424.19 644.87 457.02 563.36 483.62 531.51 488.48 522.73 488.48"/>
  <polygon class="cls-3" points="676.42 464.05 655.52 476.23 575.43 502.84 550.75 505.5 567.74 576.41 598.59 578.68 677.84 554.9 712.93 526.88 676.42 464.05"/>
  <path class="cls-1" d="M471.66,488.48l-34.35-56.4-7.76-39.34v-35.1l-14.74-25.47-15.85-20.94-22.08-7.92-24.34,12.45-18.68,15.28-31.13,7.92-10.05,9.06-6.37,22.08-10.19,58.3v41.89l-6.79,33.4-27.17,17.68s-48.12,20.82-49.81,20.82h-38.49l-26.04-15.85-24.94-20.73,7.36,15.76,16.42,15.37,23.21,14.15,28.87,10.76,30.57,6.23,32.83-5.66,33.4-11.89,34.95-76.42,2.97-112.08,21.23-3.4,16.56-5.52,25.9-18.68,2.12,11.89,8.49,11.89-7.64,16.98,2.97,18.68-10.61,18.68-5.94,18.68-4.67,34.48,15.28,8.4,30,9.15,64.53,5.42Z"/>
  <path class="cls-1" d="M330.14,576.22l-22.75,4.89-14.75,3.17-51.37,15.28-60.29,24.2-70.05,49.67-48.82,45.71,27.74,2.69,31.7-2.26,40.1,8.04,29.75,2.96,21.3,2.02s24.94-27.39,26.22-29.09,24.2-19.59,24.2-19.59l19.95-6.3,20.8-9.76,26.29-9.76,17.44-3.67,14.01-3.54,19.1-1.27,18.68-2.55,17.83-2.12,24.2-3.4,23.35-4.07h17.41l-62.83-18.43-74.3-11.04-14.89-31.76Z"/>
</svg>