<?xml version="1.0" encoding="UTF-8"?>
<svg xmlns="http://www.w3.org/2000/svg" viewBox="0 0 1016.49 983.07">
  <defs>
    <style>
      .cls-1 {
        fill: #d7ad7d;
      }

      .cls-1, .cls-2, .cls-3, .cls-4, .cls-5, .cls-6, .cls-7, .cls-8, .cls-9, .cls-10, .cls-11, .cls-12, .cls-13, .cls-14, .cls-15, .cls-16, .cls-17, .cls-18 {
        stroke-width: 0px;
      }

      .cls-2 {
        fill: #d2836a;
      }

      .cls-3 {
        fill: #e8b986;
      }

      .cls-4 {
        fill: #f28a6a;
      }

      .cls-5 {
        fill: #231f20;
        opacity: .31;
      }

      .cls-5, .cls-8 {
        mix-blend-mode: soft-light;
      }

      .cls-6 {
        fill: #fece97;
      }

      .cls-7 {
        fill: #b7926f;
      }

      .cls-19 {
        isolation: isolate;
      }

      .cls-8 {
        fill: #fff;
        opacity: .56;
      }

      .cls-9 {
        fill: #9b9da0;
      }

      .cls-10 {
        fill: #ca7458;
      }

      .cls-11 {
        fill: #d5a980;
      }

      .cls-12 {
        fill: #ebba83;
      }

      .cls-13 {
        fill: #dcddde;
      }

      .cls-14 {
        fill: #b99370;
      }

      .cls-15 {
        fill: #d5aa78;
      }

      .cls-16 {
        fill: #e6ba93;
      }

      .cls-17 {
        fill: #828487;
      }

      .cls-18 {
        fill: #b3b5b8;
      }
    </style>
  </defs>
  <g class="cls-19">
    <g id="attack">
      <g id="Layer_3_copy" data-name="Layer 3 copy">
        <polygon class="cls-11" points="494.9 726.16 442.9 673.9 377.13 623.57 332.49 562.96 276.21 506.41 249.01 533.48 467.7 753.23 494.9 726.16"/>
        <polygon class="cls-14" points="467.7 753.23 451.95 768.9 374.31 690.88 350.48 651.19 309.48 625.74 233.27 549.15 249.01 533.48 467.7 753.23"/>
        <polygon class="cls-12" points="504.22 716.88 466.76 754.16 532.42 797.83 504.22 716.88"/>
        <polygon class="cls-12" points="284.6 498.07 247.14 535.34 209.57 467.31 284.6 498.07"/>
        <polygon class="cls-15" points="441.93 778.87 467.7 753.23 532.23 798.03 441.93 778.87"/>
        <polygon class="cls-15" points="209.9 466.97 249.01 533.48 223.24 559.12 209.9 466.97"/>
        <polygon class="cls-2" points="374.31 690.88 221.84 842.6 189.59 810.19 350.48 651.19 374.31 690.88"/>
        <polygon class="cls-4" points="309.48 625.74 157.02 777.46 189.59 810.19 350.48 651.19 309.48 625.74"/>
        <polygon class="cls-16" points="221.84 842.6 189.59 810.19 166.52 834.25 216.06 872.58 221.84 842.6"/>
        <polygon class="cls-6" points="157.02 777.46 189.59 810.19 166.52 834.25 130.58 783.82 157.02 777.46"/>
        <polygon class="cls-1" points="216.06 872.58 195.3 893.23 148.17 876.02 136.42 864.21 166.52 834.25 216.06 872.58"/>
        <polygon class="cls-3" points="130.58 783.82 111.24 803.08 126.09 853.84 136.42 864.21 166.52 834.25 130.58 783.82"/>
        <g>
          <g>
            <polygon class="cls-13" points="953.78 49.71 866.73 136.34 822.83 65.02 953.78 49.71"/>
            <polygon class="cls-18" points="938.94 180.26 953.78 49.71 866.73 136.34 938.94 180.26"/>
            <polygon class="cls-9" points="442.9 673.9 377.13 623.57 866.73 136.34 938.94 180.26 728.5 389.69 717.76 400.37 697.03 411.03 686.98 431 588.92 528.59 573.19 538.19 563.87 553.52 442.9 673.9"/>
            <polygon class="cls-18" points="331.56 563.87 377.13 623.57 866.78 136.28 822.91 64.94 331.56 563.87"/>
          </g>
          <polygon class="cls-17" points="721.34 396.81 685.94 400.18 683.76 434.21 686.98 431 697.03 411.03 717.76 400.37 721.34 396.81"/>
          <polygon class="cls-17" points="588.92 528.59 567.48 533.54 563.87 553.52 573.19 538.19 588.92 528.59"/>
        </g>
        <polygon class="cls-10" points="371.69 693.47 344.36 657.11 305.83 629.38 309.48 625.74 350.48 651.19 374.31 690.88 371.69 693.47"/>
        <polygon class="cls-7" points="494.9 726.16 451.95 768.9 448.59 765.52 491.41 722.66 494.9 726.16"/>
        <polygon class="cls-7" points="279.7 509.91 236.75 552.65 233.39 549.27 276.21 506.41 279.7 509.91"/>
        <g>
          <g>
            <polygon class="cls-13" points="953.78 49.71 866.73 136.34 822.83 65.02 953.78 49.71"/>
            <polygon class="cls-18" points="938.94 180.26 953.78 49.71 866.73 136.34 938.94 180.26"/>
            <polygon class="cls-9" points="442.9 673.9 377.13 623.57 866.73 136.34 938.94 180.26 728.5 389.69 717.76 400.37 697.03 411.03 686.98 431 588.92 528.59 573.19 538.19 563.87 553.52 442.9 673.9"/>
            <polygon class="cls-18" points="331.56 563.87 377.13 623.57 377.13 623.57 866.78 136.28 822.91 64.94 331.56 563.87"/>
          </g>
          <polygon class="cls-17" points="721.34 396.81 685.94 400.18 683.76 434.21 686.98 431 697.03 411.03 717.76 400.37 721.34 396.81"/>
          <polygon class="cls-17" points="588.92 528.59 567.48 533.54 563.87 553.52 573.19 538.19 588.92 528.59"/>
        </g>
      </g>
      <g id="Layer_19" data-name="Layer 19">
        <polygon class="cls-8" points="953.78 49.71 513.7 378.93 822.91 64.94 953.78 49.71"/>
        <polygon class="cls-5" points="367.88 526.99 397.06 603.73 479.95 637.03 442.79 674.01 377.13 623.57 331.46 563.98 367.88 526.99"/>
      </g>
    </g>
  </g>
</svg>