<?xml version="1.0" encoding="UTF-8"?>
<svg id="ranged" xmlns="http://www.w3.org/2000/svg" viewBox="0 0 1016.49 983.07">
  <defs>
    <style>
      .cls-1 {
        fill: #d2836a;
      }

      .cls-1, .cls-2, .cls-3, .cls-4, .cls-5, .cls-6, .cls-7, .cls-8 {
        stroke-width: 0px;
      }

      .cls-2 {
        fill: #19120d;
        opacity: .09;
      }

      .cls-3 {
        fill: #d3896f;
      }

      .cls-4 {
        fill: #c7bcac;
      }

      .cls-5 {
        fill: #d4c7b6;
      }

      .cls-6 {
        fill: #de9074;
      }

      .cls-7 {
        fill: #b36e59;
      }

      .cls-8 {
        fill: #e1d3c0;
      }
    </style>
  </defs>
  <g id="range_2" data-name="range 2">
    <polygon class="cls-1" points="991.39 931.61 1001.57 924.4 1001.57 894.27 937.29 830.62 912.04 841.23 991.39 931.61"/>
    <polygon class="cls-1" points="903.55 730.91 879.16 736.85 912.04 841.23 937.29 830.62 903.55 730.91"/>
    <polygon class="cls-3" points="939.2 585.36 897.19 612.73 879.16 736.85 903.55 730.91 939.2 585.36"/>
    <polygon class="cls-6" points="831.21 394.2 897.19 482.67 939.2 585.36 897.19 612.73 865.58 522.77 805.75 414.36 831.21 394.2"/>
    <polygon class="cls-3" points="750.8 389.75 731.07 406.08 805.75 414.36 831.21 394.2 750.8 389.75"/>
    <polygon class="cls-6" points="637.08 288.76 620.32 301.91 731.07 406.08 750.8 389.75 637.08 288.76"/>
    <polygon class="cls-3" points="633.47 209.83 604.15 231.08 620.32 301.91 637.08 288.76 633.47 209.83"/>
    <polygon class="cls-6" points="426.61 112.03 397.55 143.21 604.15 231.08 633.47 209.83 541.39 142.79 426.61 112.03"/>
    <polygon class="cls-3" points="288.92 146.61 271.31 171.86 397.55 143.21 426.61 112.03 288.92 146.61"/>
    <polygon class="cls-1" points="176.47 144.06 209.14 126.88 288.92 146.61 271.31 171.86 176.47 144.06"/>
    <polygon class="cls-1" points="87.15 49.44 159.71 105.87 209.14 126.88 176.47 144.06 129.8 110.12 72.72 56.65 87.15 49.44"/>
    <polygon class="cls-7" points="50.23 74.47 116.22 185.65 169.44 138.95 129.8 110.12 72.72 56.65 50.23 74.47"/>
    <polygon class="cls-7" points="262.4 232.75 118.76 191.8 116.22 185.65 169.44 138.95 176.47 144.06 271.31 171.86 262.4 232.75"/>
    <polygon class="cls-7" points="393.94 204.53 397.55 143.21 271.31 171.86 262.4 232.75 393.94 204.53"/>
    <polygon class="cls-7" points="518.69 276.66 604.15 231.08 506.54 175.94 397.55 143.21 393.94 204.53 518.69 276.66"/>
    <polygon class="cls-7" points="620.32 301.91 565.15 345.83 518.69 276.66 604.15 231.08 620.32 301.91"/>
    <polygon class="cls-7" points="731.07 406.08 685.56 458.86 565.15 345.83 620.32 301.91 731.07 406.08"/>
    <polygon class="cls-7" points="805.75 414.36 763.95 506.86 685.56 458.86 731.07 406.08 805.75 414.36"/>
    <polygon class="cls-7" points="838.21 618.03 897.19 612.73 865.58 522.77 805.75 414.36 763.95 506.86 838.21 618.03"/>
    <polygon class="cls-7" points="818.66 745.8 879.16 736.85 897.19 612.73 838.21 618.03 818.66 745.8"/>
    <polygon class="cls-7" points="912.04 841.23 850.73 879.63 818.66 745.8 879.16 736.85 912.04 841.23"/>
    <polygon class="cls-7" points="991.39 931.61 962.75 955.16 850.73 879.63 912.04 841.23 991.39 931.61"/>
    <polygon class="cls-8" points="132.49 195.74 846.22 860.82 835.28 815.17 195.23 212.94 132.49 195.74"/>
    <polygon class="cls-5" points="841.53 841.23 167.1 205.23 132.49 195.74 846.22 860.82 841.53 841.23"/>
    <polygon class="cls-8" points="107.85 171.55 151.03 126.88 176.47 112.99 186.56 117.28 158.53 134.38 112.95 180.14 107.85 171.55"/>
    <polygon class="cls-8" points="191.32 119.3 164.96 135.69 116.22 185.65 118.76 191.8 122.09 192.75 173.55 141.94 200.84 123.35 191.32 119.3"/>
    <polygon class="cls-8" points="838.46 828.44 905.25 819.67 929.72 808.24 933.34 818.96 909.18 830.62 841.53 841.23 838.46 828.44"/>
    <polygon class="cls-8" points="843.66 850.13 910.63 837.12 936.22 827.47 937.29 830.62 943.07 836.35 917.43 847.36 846.22 860.82 843.66 850.13"/>
    <polygon class="cls-4" points="843.66 850.13 910.63 837.12 917.43 847.36 846.22 860.82 843.66 850.13"/>
    <polygon class="cls-4" points="838.46 828.44 905.25 819.67 908.22 830.77 841.53 841.23 838.46 828.44"/>
    <polygon class="cls-4" points="107.85 171.55 151.03 126.88 160.07 133.44 112.95 180.14 107.85 171.55"/>
    <polygon class="cls-4" points="116.22 185.65 164.96 135.69 173.55 141.94 122.78 192.94 118.76 191.8 116.22 185.65"/>
    <g id="Layer_8_copy" data-name="Layer 8 copy">
      <polygon class="cls-2" points="132.49 195.74 195.23 212.94 255.67 269.8 205.93 264.17 132.49 195.74"/>
      <polygon class="cls-2" points="846.22 860.82 835.28 815.17 775.01 758.45 789.99 808.24 846.22 860.82"/>
    </g>
  </g>
  <g id="range">
    <polygon class="cls-1" points="991.39 931.61 1001.57 924.4 1001.57 894.27 937.29 830.62 912.04 841.23 991.39 931.61"/>
    <polygon class="cls-1" points="903.55 730.91 879.16 736.85 912.04 841.23 937.29 830.62 903.55 730.91"/>
    <polygon class="cls-3" points="939.2 585.36 897.19 612.73 879.16 736.85 903.55 730.91 939.2 585.36"/>
    <polygon class="cls-6" points="831.21 394.2 897.19 482.67 939.2 585.36 897.19 612.73 865.58 522.77 805.75 414.36 831.21 394.2"/>
    <polygon class="cls-3" points="750.8 389.75 731.07 406.08 805.75 414.36 831.21 394.2 750.8 389.75"/>
    <polygon class="cls-6" points="637.08 288.76 620.32 301.91 731.07 406.08 750.8 389.75 637.08 288.76"/>
    <polygon class="cls-3" points="633.47 209.83 604.15 231.08 620.32 301.91 637.08 288.76 633.47 209.83"/>
    <polygon class="cls-6" points="426.61 112.03 397.55 143.21 604.15 231.08 633.47 209.83 541.39 142.79 426.61 112.03"/>
    <polygon class="cls-3" points="288.92 146.61 271.31 171.86 397.55 143.21 426.61 112.03 288.92 146.61"/>
    <polygon class="cls-1" points="176.47 144.06 209.14 126.88 288.92 146.61 271.31 171.86 176.47 144.06"/>
    <polygon class="cls-1" points="87.15 49.44 159.71 105.87 209.14 126.88 176.47 144.06 129.8 110.12 72.72 56.65 87.15 49.44"/>
    <polygon class="cls-7" points="50.23 74.47 116.22 185.65 169.44 138.95 129.8 110.12 72.72 56.65 50.23 74.47"/>
    <polygon class="cls-7" points="262.4 232.75 118.76 191.8 116.22 185.65 169.44 138.95 176.47 144.06 271.31 171.86 262.4 232.75"/>
    <polygon class="cls-7" points="393.94 204.53 397.55 143.21 271.31 171.86 262.4 232.75 393.94 204.53"/>
    <polygon class="cls-7" points="518.69 276.66 604.15 231.08 506.54 175.94 397.55 143.21 393.94 204.53 518.69 276.66"/>
    <polygon class="cls-7" points="620.32 301.91 565.15 345.83 518.69 276.66 604.15 231.08 620.32 301.91"/>
    <polygon class="cls-7" points="731.07 406.08 685.56 458.86 565.15 345.83 620.32 301.91 731.07 406.08"/>
    <polygon class="cls-7" points="805.75 414.36 763.95 506.86 685.56 458.86 731.07 406.08 805.75 414.36"/>
    <polygon class="cls-7" points="838.21 618.03 897.19 612.73 865.58 522.77 805.75 414.36 763.95 506.86 838.21 618.03"/>
    <polygon class="cls-7" points="818.66 745.8 879.16 736.85 897.19 612.73 838.21 618.03 818.66 745.8"/>
    <polygon class="cls-7" points="912.04 841.23 850.73 879.63 818.66 745.8 879.16 736.85 912.04 841.23"/>
    <polygon class="cls-7" points="991.39 931.61 962.75 955.16 850.73 879.63 912.04 841.23 991.39 931.61"/>
    <polygon class="cls-8" points="132.49 195.74 846.22 860.82 835.28 815.17 195.23 212.94 132.49 195.74"/>
    <polygon class="cls-5" points="841.53 841.23 167.1 205.23 132.49 195.74 846.22 860.82 841.53 841.23"/>
    <polygon class="cls-8" points="107.85 171.55 151.03 126.88 176.47 112.99 186.56 117.28 158.53 134.38 112.95 180.14 107.85 171.55"/>
    <polygon class="cls-8" points="191.32 119.3 164.96 135.69 116.22 185.65 118.76 191.8 122.09 192.75 173.55 141.94 200.84 123.35 191.32 119.3"/>
    <polygon class="cls-8" points="838.46 828.44 905.25 819.67 929.72 808.24 933.34 818.96 909.18 830.62 841.53 841.23 838.46 828.44"/>
    <polygon class="cls-8" points="843.66 850.13 910.63 837.12 936.22 827.47 937.29 830.62 943.07 836.35 917.43 847.36 846.22 860.82 843.66 850.13"/>
    <polygon class="cls-4" points="843.66 850.13 910.63 837.12 917.43 847.36 846.22 860.82 843.66 850.13"/>
    <polygon class="cls-4" points="838.46 828.44 905.25 819.67 908.22 830.77 841.53 841.23 838.46 828.44"/>
    <polygon class="cls-4" points="107.85 171.55 151.03 126.88 160.07 133.44 112.95 180.14 107.85 171.55"/>
    <polygon class="cls-4" points="116.22 185.65 164.96 135.69 173.55 141.94 122.78 192.94 118.76 191.8 116.22 185.65"/>
    <g id="Layer_8" data-name="Layer 8">
      <polygon class="cls-2" points="132.49 195.74 195.23 212.94 255.67 269.8 205.93 264.17 132.49 195.74"/>
      <polygon class="cls-2" points="846.22 860.82 835.28 815.17 775.01 758.45 789.99 808.24 846.22 860.82"/>
    </g>
  </g>
</svg>