<?xml version="1.0" encoding="UTF-8"?>
<svg xmlns="http://www.w3.org/2000/svg" viewBox="0 0 1016.49 984.67">
  <defs>
    <style>
      .cls-1 {
        fill: #a5624c;
      }

      .cls-1, .cls-2, .cls-3, .cls-4, .cls-5, .cls-6, .cls-7 {
        stroke-width: 0px;
      }

      .cls-2 {
        fill: #fff;
        opacity: .2;
      }

      .cls-2, .cls-5 {
        mix-blend-mode: soft-light;
      }

      .cls-8 {
        isolation: isolate;
      }

      .cls-3 {
        fill: #b86d55;
      }

      .cls-4 {
        fill: #aa654e;
      }

      .cls-5 {
        fill: #000;
        opacity: .45;
      }

      .cls-6 {
        fill: #855141;
      }

      .cls-7 {
        fill: #cd795f;
      }
    </style>
  </defs>
  <g class="cls-8">
    <g id="thieving_2" data-name="thieving 2">
      <g>
        <path class="cls-6" d="M1002.25,458.01l-32.28,4.1-29.66-16.75-22.93-25.99-39.55-39.97-38.68-32.96-49.09-14.69-70-20.94-73.77,1.57-84.73,8.42-113.13,378.12,25.23,20.65,38.67,22.64,37.34,18.89,47.28,14.14,31.65,8.18,53.73-5.52,48.93-11.25,47.13-15.16,56.04-35.01,38.42-32.4,39.62-39.74,40.65-43.17,32.4-42.08,22.98-40.4,7.47-47.25-13.74-13.4ZM783.65,584.96l-23.5,13.79-27.88,6.36-16.98-3.58-59.81-16.39-66.25-22.82,6.06-12.89,9.6-12.94,17.61-13.24,19.23-14.26,20.42-9.4,22.55-3.26,18.99,5.68,20.61,6.17,20.98,12.28,15.06,10.01,12.48,12.74,15.17,14.04,16.11,13.83-20.45,13.89Z"/>
        <path class="cls-6" d="M495.38,267.22l-60.79-41.82-70-20.94-49.09-14.69-50.42,6.3-55,11.68-33.44,9.13-33.98-2.29-39.09-11.7-13.36,1.63-10.82,36.16-2.98,46.38,3.96,52.96,10.26,58.41,11.29,54.97,14.31,48.18,12.28,37.03,15.32,23,31.06,38.56,34.71,36.27,35.54,33.52,37.27,11.15,47.28,14.14,45.63-.23,42.17,4.74,30.97-.87,113.13-378.12-66.19-53.57ZM308.09,481.05l-58.99-19.15-16.15-6.33-19.8-20.63-12.06-24.43-9.46-22.84,21.06-2.7,20.39-3.4,17.42-3.79,18.08-.09,24.28,1.26,20.61,6.17,18.99,5.68,17.05,15.11,11.9,19.07,8.24,22.48,7.44,20.74.91,16.09-2.02,14.1-67.9-17.31Z"/>
      </g>
      <path class="cls-3" d="M993.74,450.81l-39.09-11.7-29.66-16.75-22.93-25.99-39.55-39.97-38.68-32.96-49.09-14.69-70-20.94-73.77,1.57-84.73,8.42-113.13,378.12,25.4,17.73,37.84,19.2,38.01,25.25,47.28,14.14,37.27,11.15,48.11-8.49,48.93-11.25,47.13-15.16,56.04-35.01,38.42-32.4,39.62-39.74,40.65-43.17,32.4-42.08,22.98-40.4,10.82-36.16-10.27-8.7ZM768.32,561.96l-23.5,13.79-27.88,6.36-16.98-3.58-59.81-16.39-66.25-22.82,6.06-12.89,9.6-12.94,17.61-13.24,19.23-14.26,20.42-9.4,22.55-3.26,18.99,5.68,20.61,6.17,20.98,12.28,15.06,10.01,12.48,12.74,15.17,14.04,16.11,13.83-20.45,13.89Z"/>
      <path class="cls-7" d="M480.05,244.22l-60.79-41.82-70-20.94-49.09-14.69-50.42,6.3-55,11.68-33.44,9.13-33.98-2.29-39.09-11.7-13.36,1.63-10.82,36.16-2.98,46.38,3.96,52.96,10.26,58.41,11.29,54.97,14.31,48.18,27.6,60.03,31.06,38.56,34.71,36.27,35.54,33.52,37.27,11.15,47.28,14.14,45.63-.23,42.17,4.74,30.97-.87,113.13-378.12-66.19-53.57ZM292.77,458.05l-58.99-19.15-16.15-6.33-19.8-20.63-12.06-24.43-9.46-22.84,21.06-2.7,20.39-3.4,17.42-3.79,18.08-.09,24.28,1.26,20.61,6.17,18.99,5.68,17.05,15.11,11.9,19.07,8.24,22.48,7.44,20.74.91,16.09-2.02,14.1-67.9-17.31Z"/>
      <polygon class="cls-4" points="592.31 755.43 635.4 678.6 610.17 760.77 592.31 755.43"/>
      <polygon class="cls-1" points="631.08 761.24 651.55 719.68 641.5 759.4 631.08 761.24"/>
      <polygon class="cls-5" points="924.99 422.36 763.32 525.59 788.77 548.07 744.83 575.75 716.95 582.11 676.35 572.05 451.48 688.73 458.52 693.64 466.42 697.64 496.35 712.83 534.36 738.09 592.31 755.43 618.91 763.38 666 755.07 681.34 751.6 715.95 743.64 763.08 728.48 819.11 693.46 857.53 661.06 900.95 617.3 937.81 578.15 961.71 547.11 969.32 537.22 976.17 525.59 993.19 495.67 999.27 475.37 1004.01 459.51 993.74 450.81 954.64 439.11 924.99 422.36"/>
      <polygon class="cls-2" points="71.54 354.04 419.27 202.4 300.17 166.76 249.75 173.06 208.2 181.89 194.75 184.75 161.31 193.88 127.33 191.59 88.23 179.89 74.87 181.52 64.05 217.68 61.07 263.81 65.04 317.03 71.54 354.04"/>
    </g>
  </g>
</svg>